<?xml version="1.0" encoding="UTF-8" standalone="no"?>
<!DOCTYPE svg PUBLIC "-//W3C//DTD SVG 1.1//EN"
 "http://www.w3.org/Graphics/SVG/1.1/DTD/svg11.dtd">
<!-- Generated by graphviz version 2.40.1 (20161225.0304)
 -->
<!-- Title: UmlClassDiagram Pages: 1 -->
<svg width="3820pt" height="989pt"
 viewBox="0.00 0.00 3819.52 988.80" xmlns="http://www.w3.org/2000/svg" xmlns:xlink="http://www.w3.org/1999/xlink">
<g id="graph0" class="graph" transform="scale(1 1) rotate(0) translate(4 984.8)">
<title>UmlClassDiagram</title>
<polygon fill="#ffffff" stroke="transparent" points="-4,4 -4,-984.8 3815.5243,-984.8 3815.5243,4 -4,4"/>
<!-- 0 -->
<g id="node1" class="node">
<title>0</title>
<polygon fill="#f2f2f2" stroke="#000000" points="48.4421,-.5 48.4421,-175.7 312.8455,-175.7 312.8455,-.5 48.4421,-.5"/>
<text text-anchor="middle" x="180.6438" y="-159.1" font-family="Times,serif" font-size="14.00" fill="#000000">PerTokenCreators</text>
<polyline fill="none" stroke="#000000" points="48.4421,-150.9 312.8455,-150.9 "/>
<text text-anchor="start" x="56.4421" y="-134.3" font-family="Times,serif" font-size="14.00" fill="#000000">Private:</text>
<text text-anchor="start" x="56.4421" y="-117.5" font-family="Times,serif" font-size="14.00" fill="#000000"> &#160;&#160;_creators: mapping(uint256=&gt;address)</text>
<polyline fill="none" stroke="#000000" points="48.4421,-109.3 312.8455,-109.3 "/>
<text text-anchor="start" x="56.4421" y="-92.7" font-family="Times,serif" font-size="14.00" fill="#000000">Internal:</text>
<text text-anchor="start" x="56.4421" y="-75.9" font-family="Times,serif" font-size="14.00" fill="#000000"> &#160;&#160;&#160;_setCreator(to: address, id: uint256)</text>
<text text-anchor="start" x="56.4421" y="-59.1" font-family="Times,serif" font-size="14.00" fill="#000000">Public:</text>
<text text-anchor="start" x="56.4421" y="-42.3" font-family="Times,serif" font-size="14.00" fill="#000000"> &#160;&#160;&#160;&lt;&lt;modifier&gt;&gt; creatorOnly(_id: uint256)</text>
<text text-anchor="start" x="56.4421" y="-25.5" font-family="Times,serif" font-size="14.00" fill="#000000"> &#160;&#160;&#160;setCreator(to: address, ids: uint256[])</text>
<text text-anchor="start" x="56.4421" y="-8.7" font-family="Times,serif" font-size="14.00" fill="#000000"> &#160;&#160;&#160;getCreator(id: uint256): (creator: address)</text>
</g>
<!-- 6 -->
<g id="node2" class="node">
<title>6</title>
<polygon fill="#f2f2f2" stroke="#000000" points="0,-246.3 0,-404.7 361.2876,-404.7 361.2876,-246.3 0,-246.3"/>
<text text-anchor="middle" x="180.6438" y="-388.1" font-family="Times,serif" font-size="14.00" fill="#000000">&lt;&lt;Interface&gt;&gt;</text>
<text text-anchor="middle" x="180.6438" y="-371.3" font-family="Times,serif" font-size="14.00" fill="#000000">IPerTokenCreators</text>
<polyline fill="none" stroke="#000000" points="0,-363.1 361.2876,-363.1 "/>
<text text-anchor="middle" x="180.6438" y="-346.5" font-family="Times,serif" font-size="14.00" fill="#000000"> </text>
<polyline fill="none" stroke="#000000" points="0,-338.3 361.2876,-338.3 "/>
<text text-anchor="start" x="8" y="-321.7" font-family="Times,serif" font-size="14.00" fill="#000000">External:</text>
<text text-anchor="start" x="8" y="-304.9" font-family="Times,serif" font-size="14.00" fill="#000000"> &#160;&#160;&#160;&#160;setCreator(to: address, ids: uint256[])</text>
<text text-anchor="start" x="8" y="-288.1" font-family="Times,serif" font-size="14.00" fill="#000000"> &#160;&#160;&#160;&#160;getCreator(id: uint256): (creator: address)</text>
<text text-anchor="start" x="8" y="-271.3" font-family="Times,serif" font-size="14.00" fill="#000000">Public:</text>
<text text-anchor="start" x="8" y="-254.5" font-family="Times,serif" font-size="14.00" fill="#000000"> &#160;&#160;&#160;&lt;&lt;event&gt;&gt; NewCreator(creator: address, tokenId: uint256)</text>
</g>
<!-- 0&#45;&gt;6 -->
<g id="edge4" class="edge">
<title>0&#45;&gt;6</title>
<path fill="none" stroke="#000000" stroke-dasharray="5,2" d="M180.6438,-175.8245C180.6438,-188.8419 180.6438,-202.3937 180.6438,-215.7918"/>
<polygon fill="none" stroke="#000000" points="170.1439,-215.9824 180.6438,-245.9824 191.1439,-215.9825 170.1439,-215.9824"/>
</g>
<!-- 1 -->
<g id="node3" class="node">
<title>1</title>
<polygon fill="#f2f2f2" stroke="#000000" points="378.9761,-271.5 378.9761,-379.5 652.3115,-379.5 652.3115,-271.5 378.9761,-271.5"/>
<text text-anchor="middle" x="515.6438" y="-362.9" font-family="Times,serif" font-size="14.00" fill="#000000">&lt;&lt;Abstract&gt;&gt;</text>
<text text-anchor="middle" x="515.6438" y="-346.1" font-family="Times,serif" font-size="14.00" fill="#000000">ERC2981Base</text>
<polyline fill="none" stroke="#000000" points="378.9761,-337.9 652.3115,-337.9 "/>
<text text-anchor="middle" x="515.6438" y="-321.3" font-family="Times,serif" font-size="14.00" fill="#000000"> </text>
<polyline fill="none" stroke="#000000" points="378.9761,-313.1 652.3115,-313.1 "/>
<text text-anchor="start" x="386.9761" y="-296.5" font-family="Times,serif" font-size="14.00" fill="#000000">Public:</text>
<text text-anchor="start" x="386.9761" y="-279.7" font-family="Times,serif" font-size="14.00" fill="#000000"> &#160;&#160;&#160;supportsInterface(interfaceId: bytes4): bool</text>
</g>
<!-- 8 -->
<g id="node7" class="node">
<title>8</title>
<polygon fill="#f2f2f2" stroke="#000000" points="231.596,-576.1 231.596,-684.1 799.6916,-684.1 799.6916,-576.1 231.596,-576.1"/>
<text text-anchor="middle" x="515.6438" y="-667.5" font-family="Times,serif" font-size="14.00" fill="#000000">&lt;&lt;Interface&gt;&gt;</text>
<text text-anchor="middle" x="515.6438" y="-650.7" font-family="Times,serif" font-size="14.00" fill="#000000">IERC2981Royalties</text>
<polyline fill="none" stroke="#000000" points="231.596,-642.5 799.6916,-642.5 "/>
<text text-anchor="middle" x="515.6438" y="-625.9" font-family="Times,serif" font-size="14.00" fill="#000000"> </text>
<polyline fill="none" stroke="#000000" points="231.596,-617.7 799.6916,-617.7 "/>
<text text-anchor="start" x="239.596" y="-601.1" font-family="Times,serif" font-size="14.00" fill="#000000">External:</text>
<text text-anchor="start" x="239.596" y="-584.3" font-family="Times,serif" font-size="14.00" fill="#000000"> &#160;&#160;&#160;&#160;royaltyInfo(_tokenId: uint256, _value: uint256): (_receiver: address, _royaltyAmount: uint256)</text>
</g>
<!-- 1&#45;&gt;8 -->
<g id="edge5" class="edge">
<title>1&#45;&gt;8</title>
<path fill="none" stroke="#000000" stroke-dasharray="5,2" d="M515.6438,-379.6054C515.6438,-425.6916 515.6438,-492.6901 515.6438,-545.8033"/>
<polygon fill="none" stroke="#000000" points="505.1439,-545.9864 515.6438,-575.9864 526.1439,-545.9864 505.1439,-545.9864"/>
</g>
<!-- 1struct0 -->
<g id="node4" class="node">
<title>1struct0</title>
<polygon fill="#f2f2f2" stroke="#000000" points="458.4709,-46.5 458.4709,-129.7 572.8167,-129.7 572.8167,-46.5 458.4709,-46.5"/>
<text text-anchor="middle" x="515.6438" y="-113.1" font-family="Times,serif" font-size="14.00" fill="#000000">&lt;&lt;struct&gt;&gt;</text>
<text text-anchor="middle" x="515.6438" y="-96.3" font-family="Times,serif" font-size="14.00" fill="#000000">RoyaltyInfo</text>
<polyline fill="none" stroke="#000000" points="458.4709,-88.1 572.8167,-88.1 "/>
<text text-anchor="start" x="466.4709" y="-71.5" font-family="Times,serif" font-size="14.00" fill="#000000">recipient: address</text>
<text text-anchor="start" x="466.4709" y="-54.7" font-family="Times,serif" font-size="14.00" fill="#000000">amount: uint24</text>
</g>
<!-- 1struct0&#45;&gt;1 -->
<g id="edge1" class="edge">
<title>1struct0&#45;&gt;1</title>
<path fill="none" stroke="#000000" d="M515.6438,-129.7236C515.6438,-165.4721 515.6438,-217.6529 515.6438,-259.1551"/>
<polygon fill="#000000" stroke="#000000" points="515.6439,-259.3843 519.6438,-265.3843 515.6438,-271.3843 511.6438,-265.3843 515.6439,-259.3843"/>
</g>
<!-- 2 -->
<g id="node5" class="node">
<title>2</title>
<polygon fill="#f2f2f2" stroke="#000000" points="609.346,-8.9 609.346,-167.3 1145.9416,-167.3 1145.9416,-8.9 609.346,-8.9"/>
<text text-anchor="middle" x="877.6438" y="-150.7" font-family="Times,serif" font-size="14.00" fill="#000000">ERC2981PerTokenRoyalties</text>
<polyline fill="none" stroke="#000000" points="609.346,-142.5 1145.9416,-142.5 "/>
<text text-anchor="start" x="617.346" y="-125.9" font-family="Times,serif" font-size="14.00" fill="#000000">Private:</text>
<text text-anchor="start" x="617.346" y="-109.1" font-family="Times,serif" font-size="14.00" fill="#000000"> &#160;&#160;_royalties: mapping(uint256=&gt;RoyaltyInfo)</text>
<polyline fill="none" stroke="#000000" points="609.346,-100.9 1145.9416,-100.9 "/>
<text text-anchor="start" x="617.346" y="-84.3" font-family="Times,serif" font-size="14.00" fill="#000000">Internal:</text>
<text text-anchor="start" x="617.346" y="-67.5" font-family="Times,serif" font-size="14.00" fill="#000000"> &#160;&#160;&#160;_setTokenRoyalty(tokenId: uint256, recipient: address, value: uint256)</text>
<text text-anchor="start" x="617.346" y="-50.7" font-family="Times,serif" font-size="14.00" fill="#000000">Public:</text>
<text text-anchor="start" x="617.346" y="-33.9" font-family="Times,serif" font-size="14.00" fill="#000000"> &#160;&#160;&#160;setTokenRoyalty(tokenId: uint256, recipient: address, value: uint256)</text>
<text text-anchor="start" x="617.346" y="-17.1" font-family="Times,serif" font-size="14.00" fill="#000000"> &#160;&#160;&#160;royaltyInfo(tokenId: uint256, value: uint256): (receiver: address, royaltyAmount: uint256)</text>
</g>
<!-- 2&#45;&gt;1 -->
<g id="edge6" class="edge">
<title>2&#45;&gt;1</title>
<path fill="none" stroke="#000000" d="M733.3235,-167.3057C709.0412,-181.682 684.363,-196.9645 661.6438,-212.2 642.9434,-224.7405 623.5241,-238.9197 605.1853,-252.8969"/>
<polygon fill="none" stroke="#000000" points="598.6988,-244.6398 581.4358,-271.3277 611.5737,-261.2301 598.6988,-244.6398"/>
</g>
<!-- 7 -->
<g id="node6" class="node">
<title>7</title>
<polygon fill="#f2f2f2" stroke="#000000" points="670.2865,-254.7 670.2865,-396.3 1123.0011,-396.3 1123.0011,-254.7 670.2865,-254.7"/>
<text text-anchor="middle" x="896.6438" y="-379.7" font-family="Times,serif" font-size="14.00" fill="#000000">&lt;&lt;Interface&gt;&gt;</text>
<text text-anchor="middle" x="896.6438" y="-362.9" font-family="Times,serif" font-size="14.00" fill="#000000">IERC2981PerTokenRoyalties</text>
<polyline fill="none" stroke="#000000" points="670.2865,-354.7 1123.0011,-354.7 "/>
<text text-anchor="middle" x="896.6438" y="-338.1" font-family="Times,serif" font-size="14.00" fill="#000000"> </text>
<polyline fill="none" stroke="#000000" points="670.2865,-329.9 1123.0011,-329.9 "/>
<text text-anchor="start" x="678.2865" y="-313.3" font-family="Times,serif" font-size="14.00" fill="#000000">External:</text>
<text text-anchor="start" x="678.2865" y="-296.5" font-family="Times,serif" font-size="14.00" fill="#000000"> &#160;&#160;&#160;&#160;setTokenRoyalty(tokenId: uint256, recipient: address, value: uint256)</text>
<text text-anchor="start" x="678.2865" y="-279.7" font-family="Times,serif" font-size="14.00" fill="#000000">Public:</text>
<text text-anchor="start" x="678.2865" y="-262.9" font-family="Times,serif" font-size="14.00" fill="#000000"> &#160;&#160;&#160;&lt;&lt;event&gt;&gt; RoyaltySet(recipient: address, tokenId: uint256, value: uint256)</text>
</g>
<!-- 2&#45;&gt;7 -->
<g id="edge7" class="edge">
<title>2&#45;&gt;7</title>
<path fill="none" stroke="#000000" stroke-dasharray="5,2" d="M883.9969,-167.4808C885.459,-185.7484 887.0331,-205.4166 888.5575,-224.4641"/>
<polygon fill="none" stroke="#000000" points="878.1075,-225.5089 890.9675,-254.5755 899.0405,-223.8334 878.1075,-225.5089"/>
</g>
<!-- 3 -->
<g id="node8" class="node">
<title>3</title>
<polygon fill="#f2f2f2" stroke="#000000" points="1350.8186,-25.7 1350.8186,-150.5 1568.469,-150.5 1568.469,-25.7 1350.8186,-25.7"/>
<text text-anchor="middle" x="1459.6438" y="-133.9" font-family="Times,serif" font-size="14.00" fill="#000000">CreateDrop</text>
<polyline fill="none" stroke="#000000" points="1350.8186,-125.7 1568.469,-125.7 "/>
<text text-anchor="start" x="1358.8186" y="-109.1" font-family="Times,serif" font-size="14.00" fill="#000000">Private:</text>
<text text-anchor="start" x="1358.8186" y="-92.3" font-family="Times,serif" font-size="14.00" fill="#000000"> &#160;&#160;_dropIDs: Counters.Counter</text>
<text text-anchor="start" x="1358.8186" y="-75.5" font-family="Times,serif" font-size="14.00" fill="#000000"> &#160;&#160;_drops: mapping(uint256=&gt;Drop)</text>
<polyline fill="none" stroke="#000000" points="1350.8186,-67.3 1568.469,-67.3 "/>
<text text-anchor="start" x="1358.8186" y="-50.7" font-family="Times,serif" font-size="14.00" fill="#000000">Public:</text>
<text text-anchor="start" x="1358.8186" y="-33.9" font-family="Times,serif" font-size="14.00" fill="#000000"> &#160;&#160;&#160;createDrop()</text>
</g>
<!-- 9 -->
<g id="node9" class="node">
<title>9</title>
<polygon fill="#f2f2f2" stroke="#000000" points="1772.4867,-42.5 1772.4867,-133.7 1874.8009,-133.7 1874.8009,-42.5 1772.4867,-42.5"/>
<text text-anchor="middle" x="1823.6438" y="-117.1" font-family="Times,serif" font-size="14.00" fill="#000000">&lt;&lt;Interface&gt;&gt;</text>
<text text-anchor="middle" x="1823.6438" y="-100.3" font-family="Times,serif" font-size="14.00" fill="#000000">IComposeDrop</text>
<polyline fill="none" stroke="#000000" points="1772.4867,-92.1 1874.8009,-92.1 "/>
<text text-anchor="middle" x="1823.6438" y="-75.5" font-family="Times,serif" font-size="14.00" fill="#000000"> </text>
<polyline fill="none" stroke="#000000" points="1772.4867,-67.3 1874.8009,-67.3 "/>
<text text-anchor="middle" x="1823.6438" y="-50.7" font-family="Times,serif" font-size="14.00" fill="#000000"> </text>
</g>
<!-- 12 -->
<g id="node12" class="node">
<title>12</title>
<polygon fill="#f2f2f2" stroke="#000000" points="1140.6585,-212.7 1140.6585,-438.3 1562.6291,-438.3 1562.6291,-212.7 1140.6585,-212.7"/>
<text text-anchor="middle" x="1351.6438" y="-421.7" font-family="Times,serif" font-size="14.00" fill="#000000">&lt;&lt;Interface&gt;&gt;</text>
<text text-anchor="middle" x="1351.6438" y="-404.9" font-family="Times,serif" font-size="14.00" fill="#000000">ICreateDrop</text>
<polyline fill="none" stroke="#000000" points="1140.6585,-396.7 1562.6291,-396.7 "/>
<text text-anchor="middle" x="1351.6438" y="-380.1" font-family="Times,serif" font-size="14.00" fill="#000000"> </text>
<polyline fill="none" stroke="#000000" points="1140.6585,-371.9 1562.6291,-371.9 "/>
<text text-anchor="start" x="1148.6585" y="-355.3" font-family="Times,serif" font-size="14.00" fill="#000000">External:</text>
<text text-anchor="start" x="1148.6585" y="-338.5" font-family="Times,serif" font-size="14.00" fill="#000000"> &#160;&#160;&#160;&#160;createDrop()</text>
<text text-anchor="start" x="1148.6585" y="-321.7" font-family="Times,serif" font-size="14.00" fill="#000000"> &#160;&#160;&#160;&#160;editDrop()</text>
<text text-anchor="start" x="1148.6585" y="-304.9" font-family="Times,serif" font-size="14.00" fill="#000000"> &#160;&#160;&#160;&#160;cancelDrop()</text>
<text text-anchor="start" x="1148.6585" y="-288.1" font-family="Times,serif" font-size="14.00" fill="#000000"> &#160;&#160;&#160;&#160;dropInfo()</text>
<text text-anchor="start" x="1148.6585" y="-271.3" font-family="Times,serif" font-size="14.00" fill="#000000">Public:</text>
<text text-anchor="start" x="1148.6585" y="-254.5" font-family="Times,serif" font-size="14.00" fill="#000000"> &#160;&#160;&#160;&lt;&lt;event&gt;&gt; DropStateUpdated(newState: DropState, dropID: uint256)</text>
<text text-anchor="start" x="1148.6585" y="-237.7" font-family="Times,serif" font-size="14.00" fill="#000000"> &#160;&#160;&#160;&lt;&lt;event&gt;&gt; NewDrop(dropID: uint256, drop: Drop)</text>
<text text-anchor="start" x="1148.6585" y="-220.9" font-family="Times,serif" font-size="14.00" fill="#000000"> &#160;&#160;&#160;&lt;&lt;event&gt;&gt; DropEdited(dropID: uint256, editedDrop: Drop)</text>
</g>
<!-- 9&#45;&gt;12 -->
<g id="edge8" class="edge">
<title>9&#45;&gt;12</title>
<path fill="none" stroke="#000000" stroke-dasharray="5,2" d="M1772.3497,-113.0257C1727.2132,-135.0288 1659.0435,-168.4264 1589.7471,-203.1277"/>
<polygon fill="none" stroke="#000000" points="1584.7585,-193.8833 1562.6621,-216.7306 1594.1835,-212.6495 1584.7585,-193.8833"/>
</g>
<!-- 13 -->
<g id="node13" class="node">
<title>13</title>
<polygon fill="#f2f2f2" stroke="#000000" points="1580.3794,-263.1 1580.3794,-387.9 2066.9082,-387.9 2066.9082,-263.1 1580.3794,-263.1"/>
<text text-anchor="middle" x="1823.6438" y="-371.3" font-family="Times,serif" font-size="14.00" fill="#000000">&lt;&lt;Interface&gt;&gt;</text>
<text text-anchor="middle" x="1823.6438" y="-354.5" font-family="Times,serif" font-size="14.00" fill="#000000">IFinishDrop</text>
<polyline fill="none" stroke="#000000" points="1580.3794,-346.3 2066.9082,-346.3 "/>
<text text-anchor="middle" x="1823.6438" y="-329.7" font-family="Times,serif" font-size="14.00" fill="#000000"> </text>
<polyline fill="none" stroke="#000000" points="1580.3794,-321.5 2066.9082,-321.5 "/>
<text text-anchor="start" x="1588.3794" y="-304.9" font-family="Times,serif" font-size="14.00" fill="#000000">Public:</text>
<text text-anchor="start" x="1588.3794" y="-288.1" font-family="Times,serif" font-size="14.00" fill="#000000"> &#160;&#160;&#160;&lt;&lt;event&gt;&gt; RandomNumberReceived(dropID: uint256, randomNumber: uint256)</text>
<text text-anchor="start" x="1588.3794" y="-271.3" font-family="Times,serif" font-size="14.00" fill="#000000"> &#160;&#160;&#160;&lt;&lt;event&gt;&gt; WinnersSelected(dropID: uint256, winners: address[])</text>
</g>
<!-- 9&#45;&gt;13 -->
<g id="edge10" class="edge">
<title>9&#45;&gt;13</title>
<path fill="none" stroke="#000000" stroke-dasharray="5,2" d="M1823.6438,-133.8731C1823.6438,-161.8606 1823.6438,-198.6795 1823.6438,-232.5574"/>
<polygon fill="none" stroke="#000000" points="1813.1439,-232.8154 1823.6438,-262.8154 1834.1439,-232.8154 1813.1439,-232.8154"/>
</g>
<!-- 14 -->
<g id="node14" class="node">
<title>14</title>
<polygon fill="#f2f2f2" stroke="#000000" points="2085.3745,-229.5 2085.3745,-421.5 2683.9131,-421.5 2683.9131,-229.5 2085.3745,-229.5"/>
<text text-anchor="middle" x="2384.6438" y="-404.9" font-family="Times,serif" font-size="14.00" fill="#000000">&lt;&lt;Interface&gt;&gt;</text>
<text text-anchor="middle" x="2384.6438" y="-388.1" font-family="Times,serif" font-size="14.00" fill="#000000">IRunDrop</text>
<polyline fill="none" stroke="#000000" points="2085.3745,-379.9 2683.9131,-379.9 "/>
<text text-anchor="middle" x="2384.6438" y="-363.3" font-family="Times,serif" font-size="14.00" fill="#000000"> </text>
<polyline fill="none" stroke="#000000" points="2085.3745,-355.1 2683.9131,-355.1 "/>
<text text-anchor="start" x="2093.3745" y="-338.5" font-family="Times,serif" font-size="14.00" fill="#000000">External:</text>
<text text-anchor="start" x="2093.3745" y="-321.7" font-family="Times,serif" font-size="14.00" fill="#000000"> &#160;&#160;&#160;&#160;startDrop()</text>
<text text-anchor="start" x="2093.3745" y="-304.9" font-family="Times,serif" font-size="14.00" fill="#000000"> &#160;&#160;&#160;&#160;depositMoney()</text>
<text text-anchor="start" x="2093.3745" y="-288.1" font-family="Times,serif" font-size="14.00" fill="#000000"> &#160;&#160;&#160;&#160;depositPoints()</text>
<text text-anchor="start" x="2093.3745" y="-271.3" font-family="Times,serif" font-size="14.00" fill="#000000">Public:</text>
<text text-anchor="start" x="2093.3745" y="-254.5" font-family="Times,serif" font-size="14.00" fill="#000000"> &#160;&#160;&#160;&lt;&lt;event&gt;&gt; NewPayment(sender: address, dropID: uint256, amount: uint256)</text>
<text text-anchor="start" x="2093.3745" y="-237.7" font-family="Times,serif" font-size="14.00" fill="#000000"> &#160;&#160;&#160;&lt;&lt;event&gt;&gt; NewPointsDeposit(sender: address, dropID: uint256, pointsID: uint256, amount: uint256)</text>
</g>
<!-- 9&#45;&gt;14 -->
<g id="edge9" class="edge">
<title>9&#45;&gt;14</title>
<path fill="none" stroke="#000000" stroke-dasharray="5,2" d="M1874.916,-109.797C1933.5105,-134.5926 2033.7698,-177.0196 2129.9483,-217.7197"/>
<polygon fill="none" stroke="#000000" points="2125.8767,-227.3982 2157.5968,-229.4199 2134.0608,-208.0585 2125.8767,-227.3982"/>
</g>
<!-- 10 -->
<g id="node10" class="node">
<title>10</title>
<polygon fill="#f2f2f2" stroke="#000000" points="1285.6862,-821.9 1285.6862,-980.3 1415.6014,-980.3 1415.6014,-821.9 1285.6862,-821.9"/>
<text text-anchor="middle" x="1350.6438" y="-963.7" font-family="Times,serif" font-size="14.00" fill="#000000">&lt;&lt;Enum&gt;&gt;</text>
<text text-anchor="middle" x="1350.6438" y="-946.9" font-family="Times,serif" font-size="14.00" fill="#000000">DropState</text>
<polyline fill="none" stroke="#000000" points="1285.6862,-938.7 1415.6014,-938.7 "/>
<text text-anchor="start" x="1293.6862" y="-922.1" font-family="Times,serif" font-size="14.00" fill="#000000">NOT_STARTED: 0</text>
<text text-anchor="start" x="1293.6862" y="-905.3" font-family="Times,serif" font-size="14.00" fill="#000000">OPEN: 1</text>
<text text-anchor="start" x="1293.6862" y="-888.5" font-family="Times,serif" font-size="14.00" fill="#000000">CALCULATING: 2</text>
<text text-anchor="start" x="1293.6862" y="-871.7" font-family="Times,serif" font-size="14.00" fill="#000000">FINISHED: 3</text>
<text text-anchor="start" x="1293.6862" y="-854.9" font-family="Times,serif" font-size="14.00" fill="#000000">CANCELLED: 4</text>
<polyline fill="none" stroke="#000000" points="1285.6862,-846.7 1415.6014,-846.7 "/>
<text text-anchor="middle" x="1350.6438" y="-830.1" font-family="Times,serif" font-size="14.00" fill="#000000"> </text>
</g>
<!-- 11 -->
<g id="node11" class="node">
<title>11</title>
<polygon fill="#f2f2f2" stroke="#000000" points="1319.0726,-475.3 1319.0726,-784.9 1504.215,-784.9 1504.215,-475.3 1319.0726,-475.3"/>
<text text-anchor="middle" x="1411.6438" y="-768.3" font-family="Times,serif" font-size="14.00" fill="#000000">&lt;&lt;Struct&gt;&gt;</text>
<text text-anchor="middle" x="1411.6438" y="-751.5" font-family="Times,serif" font-size="14.00" fill="#000000">Drop</text>
<polyline fill="none" stroke="#000000" points="1319.0726,-743.3 1504.215,-743.3 "/>
<text text-anchor="start" x="1327.0726" y="-726.7" font-family="Times,serif" font-size="14.00" fill="#000000">state: DropState</text>
<text text-anchor="start" x="1327.0726" y="-709.9" font-family="Times,serif" font-size="14.00" fill="#000000">royaltyReceiver: address</text>
<text text-anchor="start" x="1327.0726" y="-693.1" font-family="Times,serif" font-size="14.00" fill="#000000">paymentReceiver: address</text>
<text text-anchor="start" x="1327.0726" y="-676.3" font-family="Times,serif" font-size="14.00" fill="#000000">treasuryToken: address</text>
<text text-anchor="start" x="1327.0726" y="-659.5" font-family="Times,serif" font-size="14.00" fill="#000000">nftIDs: uint256[]</text>
<text text-anchor="start" x="1327.0726" y="-642.7" font-family="Times,serif" font-size="14.00" fill="#000000">pointsID: uint256</text>
<text text-anchor="start" x="1327.0726" y="-625.9" font-family="Times,serif" font-size="14.00" fill="#000000">paymentsMapID: uint256</text>
<text text-anchor="start" x="1327.0726" y="-609.1" font-family="Times,serif" font-size="14.00" fill="#000000">pointsMapID: uint256</text>
<text text-anchor="start" x="1327.0726" y="-592.3" font-family="Times,serif" font-size="14.00" fill="#000000">paymentsPremium: uint256</text>
<text text-anchor="start" x="1327.0726" y="-575.5" font-family="Times,serif" font-size="14.00" fill="#000000">pointsPremium: uint256</text>
<text text-anchor="start" x="1327.0726" y="-558.7" font-family="Times,serif" font-size="14.00" fill="#000000">entranceFee: uint256</text>
<text text-anchor="start" x="1327.0726" y="-541.9" font-family="Times,serif" font-size="14.00" fill="#000000">royaltyFee: uint256</text>
<text text-anchor="start" x="1327.0726" y="-525.1" font-family="Times,serif" font-size="14.00" fill="#000000">duration: uint256</text>
<text text-anchor="start" x="1327.0726" y="-508.3" font-family="Times,serif" font-size="14.00" fill="#000000">finalRandomNumber: uint256</text>
<polyline fill="none" stroke="#000000" points="1319.0726,-500.1 1504.215,-500.1 "/>
<text text-anchor="middle" x="1411.6438" y="-483.5" font-family="Times,serif" font-size="14.00" fill="#000000"> </text>
</g>
<!-- 11&#45;&gt;10 -->
<g id="edge11" class="edge">
<title>11&#45;&gt;10</title>
<path fill="none" stroke="#000000" stroke-dasharray="5,2" d="M1376.7787,-784.9923C1374.704,-794.2097 1372.6567,-803.3049 1370.6764,-812.1025"/>
<polygon fill="#000000" stroke="#000000" points="1367.2527,-811.3749 1368.4712,-821.8994 1374.0819,-812.9122 1367.2527,-811.3749"/>
</g>
<!-- 12&#45;&gt;10 -->
<g id="edge12" class="edge">
<title>12&#45;&gt;10</title>
<path fill="none" stroke="#000000" stroke-dasharray="5,2" d="M1316.3635,-438.5291C1313.619,-450.6759 1311.2816,-462.9303 1309.6438,-474.8 1290.7754,-611.5489 1286.2512,-649.352 1309.6438,-785.4 1311.1554,-794.1915 1313.2689,-803.2014 1315.7471,-812.1232"/>
<polygon fill="#000000" stroke="#000000" points="1312.3984,-813.142 1318.568,-821.7552 1319.1162,-811.1745 1312.3984,-813.142"/>
</g>
<!-- 12&#45;&gt;11 -->
<g id="edge13" class="edge">
<title>12&#45;&gt;11</title>
<path fill="none" stroke="#000000" stroke-dasharray="5,2" d="M1373.9003,-438.4889C1375.6392,-447.3168 1377.4154,-456.3338 1379.2032,-465.4099"/>
<polygon fill="#000000" stroke="#000000" points="1375.7798,-466.1405 1381.1465,-475.2755 1382.6478,-464.7875 1375.7798,-466.1405"/>
</g>
<!-- 4 -->
<g id="node15" class="node">
<title>4</title>
<polygon fill="#f2f2f2" stroke="#000000" points="2991.7633,-254.7 2991.7633,-396.3 3811.5243,-396.3 3811.5243,-254.7 2991.7633,-254.7"/>
<text text-anchor="middle" x="3401.6438" y="-379.7" font-family="Times,serif" font-size="14.00" fill="#000000">&lt;&lt;Abstract&gt;&gt;</text>
<text text-anchor="middle" x="3401.6438" y="-362.9" font-family="Times,serif" font-size="14.00" fill="#000000">ERC1155TokenWrapper</text>
<polyline fill="none" stroke="#000000" points="2991.7633,-354.7 3811.5243,-354.7 "/>
<text text-anchor="start" x="2999.7633" y="-338.1" font-family="Times,serif" font-size="14.00" fill="#000000">Private:</text>
<text text-anchor="start" x="2999.7633" y="-321.3" font-family="Times,serif" font-size="14.00" fill="#000000"> &#160;&#160;_parentToChildren: mapping(uint256=&gt;ChildToken[])</text>
<polyline fill="none" stroke="#000000" points="2991.7633,-313.1 3811.5243,-313.1 "/>
<text text-anchor="start" x="2999.7633" y="-296.5" font-family="Times,serif" font-size="14.00" fill="#000000">Public:</text>
<text text-anchor="start" x="2999.7633" y="-279.7" font-family="Times,serif" font-size="14.00" fill="#000000"> &#160;&#160;&#160;&lt;&lt;payable&gt;&gt; deposit(parentID: uint256, tokenType: TokenType, childAddress: address, nonFungibleID: uint256, fungibleAmount: uint256)</text>
<text text-anchor="start" x="2999.7633" y="-262.9" font-family="Times,serif" font-size="14.00" fill="#000000"> &#160;&#160;&#160;withdraw(parentID: uint256, parentOwner: address)</text>
</g>
<!-- 15 -->
<g id="node17" class="node">
<title>15</title>
<polygon fill="#f2f2f2" stroke="#000000" points="2554.3197,-542.5 2554.3197,-717.7 3298.9679,-717.7 3298.9679,-542.5 2554.3197,-542.5"/>
<text text-anchor="middle" x="2926.6438" y="-701.1" font-family="Times,serif" font-size="14.00" fill="#000000">&lt;&lt;Interface&gt;&gt;</text>
<text text-anchor="middle" x="2926.6438" y="-684.3" font-family="Times,serif" font-size="14.00" fill="#000000">IERC1155TokenWrapper</text>
<polyline fill="none" stroke="#000000" points="2554.3197,-676.1 3298.9679,-676.1 "/>
<text text-anchor="middle" x="2926.6438" y="-659.5" font-family="Times,serif" font-size="14.00" fill="#000000"> </text>
<polyline fill="none" stroke="#000000" points="2554.3197,-651.3 3298.9679,-651.3 "/>
<text text-anchor="start" x="2562.3197" y="-634.7" font-family="Times,serif" font-size="14.00" fill="#000000">External:</text>
<text text-anchor="start" x="2562.3197" y="-617.9" font-family="Times,serif" font-size="14.00" fill="#000000"> &#160;&#160;&#160;&#160;deposit(parentID: uint256, tokenType: TokenType, childAddress: address, nonFungibleID: uint256, fungibleAmount: uint256)</text>
<text text-anchor="start" x="2562.3197" y="-601.1" font-family="Times,serif" font-size="14.00" fill="#000000"> &#160;&#160;&#160;&#160;withdraw(parentID: uint256, parentOwner: address)</text>
<text text-anchor="start" x="2562.3197" y="-584.3" font-family="Times,serif" font-size="14.00" fill="#000000">Public:</text>
<text text-anchor="start" x="2562.3197" y="-567.5" font-family="Times,serif" font-size="14.00" fill="#000000"> &#160;&#160;&#160;&lt;&lt;event&gt;&gt; ChildDeposited(sender: address, parentID: uint256, child: ChildToken)</text>
<text text-anchor="start" x="2562.3197" y="-550.7" font-family="Times,serif" font-size="14.00" fill="#000000"> &#160;&#160;&#160;&lt;&lt;event&gt;&gt; ChildWithdrawn(recipient: address, parentID: uint256, child: ChildToken, withdrawValue: uint256)</text>
</g>
<!-- 4&#45;&gt;15 -->
<g id="edge14" class="edge">
<title>4&#45;&gt;15</title>
<path fill="none" stroke="#000000" stroke-dasharray="5,2" d="M3291.1762,-396.3388C3231.1538,-434.8289 3155.7927,-483.1552 3089.193,-525.8632"/>
<polygon fill="none" stroke="#000000" points="3083.2553,-517.1973 3063.6696,-542.2304 3094.5913,-534.8749 3083.2553,-517.1973"/>
</g>
<!-- 5 -->
<g id="node16" class="node">
<title>5</title>
<polygon fill="#f2f2f2" stroke="#000000" points="3350.4951,-42.5 3350.4951,-133.7 3452.7925,-133.7 3452.7925,-42.5 3350.4951,-42.5"/>
<text text-anchor="middle" x="3401.6438" y="-117.1" font-family="Times,serif" font-size="14.00" fill="#000000">Mocck</text>
<polyline fill="none" stroke="#000000" points="3350.4951,-108.9 3452.7925,-108.9 "/>
<text text-anchor="middle" x="3401.6438" y="-92.3" font-family="Times,serif" font-size="14.00" fill="#000000"> </text>
<polyline fill="none" stroke="#000000" points="3350.4951,-84.1 3452.7925,-84.1 "/>
<text text-anchor="start" x="3358.4951" y="-67.5" font-family="Times,serif" font-size="14.00" fill="#000000">Public:</text>
<text text-anchor="start" x="3358.4951" y="-50.7" font-family="Times,serif" font-size="14.00" fill="#000000"> &#160;&#160;&#160;constructor()</text>
</g>
<!-- 5&#45;&gt;4 -->
<g id="edge15" class="edge">
<title>5&#45;&gt;4</title>
<path fill="none" stroke="#000000" d="M3401.6438,-133.8731C3401.6438,-159.6743 3401.6438,-192.981 3401.6438,-224.5698"/>
<polygon fill="none" stroke="#000000" points="3391.1439,-224.6339 3401.6438,-254.6339 3412.1439,-224.6339 3391.1439,-224.6339"/>
</g>
<!-- 15struct0 -->
<g id="node18" class="node">
<title>15struct0</title>
<polygon fill="#f2f2f2" stroke="#000000" points="2702.2858,-267.1 2702.2858,-383.9 2861.0018,-383.9 2861.0018,-267.1 2702.2858,-267.1"/>
<text text-anchor="middle" x="2781.6438" y="-367.3" font-family="Times,serif" font-size="14.00" fill="#000000">&lt;&lt;struct&gt;&gt;</text>
<text text-anchor="middle" x="2781.6438" y="-350.5" font-family="Times,serif" font-size="14.00" fill="#000000">ChildToken</text>
<polyline fill="none" stroke="#000000" points="2702.2858,-342.3 2861.0018,-342.3 "/>
<text text-anchor="start" x="2710.2858" y="-325.7" font-family="Times,serif" font-size="14.00" fill="#000000">tokenType: TokenType</text>
<text text-anchor="start" x="2710.2858" y="-308.9" font-family="Times,serif" font-size="14.00" fill="#000000">childAddress: address</text>
<text text-anchor="start" x="2710.2858" y="-292.1" font-family="Times,serif" font-size="14.00" fill="#000000">nonFungibleID: uint256</text>
<text text-anchor="start" x="2710.2858" y="-275.3" font-family="Times,serif" font-size="14.00" fill="#000000">fungibleAmount: uint256</text>
</g>
<!-- 15struct0&#45;&gt;15 -->
<g id="edge2" class="edge">
<title>15struct0&#45;&gt;15</title>
<path fill="none" stroke="#000000" d="M2809.6013,-384.2299C2829.4554,-425.9373 2856.5858,-482.9299 2879.7272,-531.5427"/>
<polygon fill="#000000" stroke="#000000" points="2879.7465,-531.5835 2885.9371,-535.2817 2884.9044,-542.4185 2878.7138,-538.7203 2879.7465,-531.5835"/>
</g>
<!-- 15enum0 -->
<g id="node19" class="node">
<title>15enum0</title>
<polygon fill="#f2f2f2" stroke="#000000" points="2879.1841,-267.1 2879.1841,-383.9 2974.1035,-383.9 2974.1035,-267.1 2879.1841,-267.1"/>
<text text-anchor="middle" x="2926.6438" y="-367.3" font-family="Times,serif" font-size="14.00" fill="#000000">&lt;&lt;enum&gt;&gt;</text>
<text text-anchor="middle" x="2926.6438" y="-350.5" font-family="Times,serif" font-size="14.00" fill="#000000">TokenType</text>
<polyline fill="none" stroke="#000000" points="2879.1841,-342.3 2974.1035,-342.3 "/>
<text text-anchor="start" x="2887.1841" y="-325.7" font-family="Times,serif" font-size="14.00" fill="#000000">NativeETH: 0</text>
<text text-anchor="start" x="2887.1841" y="-308.9" font-family="Times,serif" font-size="14.00" fill="#000000">ERC20: 1</text>
<text text-anchor="start" x="2887.1841" y="-292.1" font-family="Times,serif" font-size="14.00" fill="#000000">ERC721: 2</text>
<text text-anchor="start" x="2887.1841" y="-275.3" font-family="Times,serif" font-size="14.00" fill="#000000">ERC1155: 3</text>
</g>
<!-- 15enum0&#45;&gt;15 -->
<g id="edge3" class="edge">
<title>15enum0&#45;&gt;15</title>
<path fill="none" stroke="#000000" d="M2926.6438,-384.2299C2926.6438,-425.5868 2926.6438,-481.9731 2926.6438,-530.3154"/>
<polygon fill="#000000" stroke="#000000" points="2926.6439,-530.4185 2930.6438,-536.4185 2926.6438,-542.4185 2922.6438,-536.4184 2926.6439,-530.4185"/>
</g>
</g>
</svg>
